<svg width="144" height="40" viewBox="0 0 144 40" fill="none" xmlns="http://www.w3.org/2000/svg">
<circle cx="124" cy="20" r="20" fill="white"/>
<circle cx="20" cy="20" r="20" fill="white"/>
<circle cx="73" cy="20" r="20" fill="white"/>
<path d="M77.999 13V9H73.999C71.7899 9 69.999 10.7909 69.999 13V17H65.999V21H69.999V31H73.999V21H77.999V17H73.999V13H77.999Z" fill="#3941FF"/>
<path d="M22.949 13.1441C24.634 12.6481 25.933 13.4141 26.526 14.3231C27.199 14.0921 27.857 13.8421 28.537 13.6151C28.5239 14.3015 28.2107 14.9476 27.68 15.3831C28.365 15.5531 28.984 14.8921 28.984 14.8921C28.815 15.8921 27.978 16.6801 27.421 16.9161C27.19 23.6661 24.246 28.1331 17.344 27.9981H16.898C16.488 27.9981 12.734 27.5381 12 26.1111C14.271 26.3071 15.893 25.6891 16.693 24.9341C15.733 24.6341 14.014 24.4571 13.714 21.9841C14.063 22.0901 14.278 22.2121 14.904 22.1031C13.704 21.2471 12.373 20.5301 12.447 18.3301C12.732 18.6581 13.514 18.8661 13.787 18.8021C13.084 18.5611 11.817 15.4421 12.893 13.8501C14.711 15.7041 16.628 17.4561 20.045 17.6231C20.253 15.3301 21.182 13.7931 22.949 13.1441Z" fill="#3941FF"/>
<path d="M130.999 12H116.999C115.349 12 113.999 13.35 113.999 15V25C113.999 26.65 115.349 28 116.999 28H130.999C132.649 28 133.999 26.65 133.999 25V15C133.999 13.35 132.649 12 130.999 12Z" fill="#3941FF"/>
<path d="M120.026 23.998V16.002L129.013 20L120.026 23.998V23.998Z" fill="white"/>
</svg>
