<svg width="38" height="35" viewBox="0 0 38 35" fill="none" xmlns="http://www.w3.org/2000/svg">
<g clip-path="url(#clip0)">
<path d="M12.5888 18.5494C14.2987 16.0925 17.2109 14.6254 20.3791 14.6254C23.5474 14.6254 26.4596 16.0925 28.1692 18.5494L32.2895 24.4697C32.9731 25.4518 33.2886 26.5867 33.2019 27.7507C33.1152 28.9149 32.6342 29.9991 31.8112 30.8867C30.9875 31.7735 29.8991 32.3796 28.6638 32.6397C27.4285 32.8998 26.1621 32.7887 25.0019 32.319L24.9242 32.2872C22.0047 31.1289 18.6686 31.1396 15.7567 32.319C15.0055 32.6232 14.2097 32.777 13.4066 32.777C12.97 32.777 12.5308 32.7313 12.0956 32.64C10.8603 32.3802 9.77195 31.774 8.94801 30.8869C8.12464 30.0001 7.64338 28.9157 7.55641 27.7512C7.46943 26.5867 7.78486 25.4521 8.46848 24.4694L12.5888 18.5494Z" fill="white"/>
<path d="M31.1797 18.5417C29.9539 18.108 29.0227 17.1983 28.5577 15.9798C28.115 14.8204 28.1512 13.5114 28.66 12.2937C29.1691 11.0769 30.0951 10.0835 31.2675 9.49633C32.4991 8.87976 33.8521 8.77936 35.0759 9.21382C37.5378 10.0857 38.6676 12.8879 37.5941 15.4618C36.7365 17.5104 34.7364 18.8036 32.7142 18.8036C32.1979 18.8036 31.6801 18.7192 31.1797 18.5417Z" fill="white"/>
<path d="M23.185 13.9034C20.1072 13.9034 17.6032 11.2758 17.6032 8.04611C17.6032 4.8156 20.1072 2.1875 23.185 2.1875C26.2625 2.1875 28.7662 4.8156 28.7662 8.04611C28.7662 11.2758 26.2625 13.9034 23.185 13.9034Z" fill="white"/>
<path d="M13.5452 15.3424H13.545C13.0715 15.4871 12.5885 15.5563 12.1075 15.5563C9.86301 15.5563 7.67558 14.0516 6.84091 11.7391C6.36023 10.408 6.39183 9.00044 6.92992 7.77612C7.49294 6.49438 8.53635 5.56405 9.86822 5.1563C11.2004 4.74854 12.641 4.91864 13.925 5.63481C15.1517 6.31894 16.0916 7.42898 16.5717 8.76012C17.5849 11.5682 16.2273 14.521 13.5452 15.3424Z" fill="white"/>
<path d="M1.79051 14.6588L1.79138 14.658C3.91387 13.2139 7.08818 13.8398 8.86798 16.054C10.646 18.2693 10.368 21.2475 8.24872 22.6926C7.4758 23.22 6.56256 23.4721 5.62786 23.4721C3.99882 23.4721 2.30396 22.7062 1.17096 21.2979C-0.606813 19.0827 -0.329073 16.1045 1.79051 14.6588Z" fill="white"/>
</g>
<defs>
<clipPath id="clip0">
<rect width="38" height="35" fill="white" transform="matrix(-1 0 0 1 38 0)"/>
</clipPath>
</defs>
</svg>
