<svg width="88" height="94" viewBox="0 0 88 94" fill="none" xmlns="http://www.w3.org/2000/svg">
<g clip-path="url(#clip0)">
<path d="M19.5633 0V3.28952C19.5588 6.47318 19.9693 9.64262 20.7843 12.7054L22.5711 19.418L36.2124 4.87503L33.899 3.63554C29.4498 1.25055 24.5413 0.00631992 19.5633 0Z" fill="#F7A116"/>
<path d="M59.7387 3.67268L57.4172 4.90586L71.0304 19.4875L72.8401 12.7813C73.6625 9.72085 74.0825 6.55299 74.087 3.36854V0.0790173C69.1082 0.0711173 64.1953 1.30192 59.7387 3.67268Z" fill="#F7A116"/>
<path d="M23.2759 68.0411C20.5321 67.6793 18.0923 66.0021 16.6472 63.4844C15.2028 60.9667 14.9107 57.8834 15.8536 55.1074C16.7492 52.6948 16.571 49.978 15.3677 47.7233L15.0815 47.2138C8.3892 48.1286 3.33057 54.1349 3.18413 61.3396C3.03696 68.5443 7.84635 74.7805 14.4943 76.0058C21.143 77.2311 27.6305 73.0773 29.7523 66.2368C27.8893 67.7014 25.5708 68.3468 23.2759 68.0411Z" fill="#EE9200"/>
<path d="M75.4937 85.8277L78.1369 72.5061C78.9815 68.2488 77.9838 63.8123 75.4212 60.4295C72.8586 57.0468 69.0047 55.0781 64.9312 55.0718L28.5801 55.0181C24.5058 55.0125 20.6468 56.9694 18.0753 60.345C15.5046 63.7206 14.4951 68.154 15.3285 72.4137L17.9377 85.7487H16.4231C12.2409 85.7424 8.84552 89.359 8.8396 93.8271L27.0152 93.8524L66.3955 93.9125L84.5711 93.9385C84.577 89.4711 81.1913 85.8443 77.0083 85.838L75.4937 85.8277Z" fill="#F7A116"/>
<path d="M84.983 94.0001C84.983 89.532 81.5929 85.9106 77.4099 85.9106H75.8952L78.5214 72.5851C79.599 67.1334 77.6377 61.5071 73.4843 58.1362C66.1596 78.7044 47.5492 88.9426 31.9865 94.0001H84.983Z" fill="#F58F00"/>
<path d="M74.3806 35.7557H80.4391C80.4391 40.2231 77.0489 43.8452 72.866 43.8452H66.8074C66.8074 39.3771 70.1983 35.7557 74.3806 35.7557Z" fill="#348FD9"/>
<path d="M66.8074 43.8453H72.866C77.0489 43.8453 80.4391 47.4666 80.4391 51.9348H74.3806C70.1983 51.9348 66.8074 48.3127 66.8074 43.8453Z" fill="#3086CD"/>
<path d="M66.8074 34.1378H27.4271V40.6284L30.4563 94.0002H42.5734V69.7316H51.6611V94.0002H63.7782L66.8074 40.6284V34.1378Z" fill="#FFB531"/>
<path d="M66.8074 35.7557H27.4271V40.6284C27.7843 47.2224 31.0716 53.2359 36.273 56.8074C38.292 58.1891 40.3621 59.4839 42.4824 60.691C42.5748 60.7423 42.6643 60.8008 42.7568 60.8522L47.0278 63.26L51.5716 60.5417L56.455 57.6298L57.0607 57.264C62.7228 53.8141 66.3844 47.5574 66.8074 40.6094V35.7557Z" fill="#348FD9"/>
<path d="M66.8074 35.7557H27.4271V40.6284C27.7843 47.2224 31.0716 53.2359 36.273 56.8074C38.292 58.1891 40.3621 59.4839 42.4824 60.691C42.5748 60.7423 42.6643 60.8008 42.7568 60.8522L47.0278 63.26L51.5716 60.5417L56.455 57.6298L57.0607 57.264C62.7228 53.8141 66.3844 47.5574 66.8074 40.6094V35.7557Z" fill="#3086CD"/>
<path d="M54.0847 48.6989H40.1498C38.7735 48.6989 37.4378 48.1989 36.3632 47.2801L25.1551 37.6967C23.7196 36.4691 22.8839 34.611 22.8832 32.6463V20.6393C22.8832 18.9226 23.5222 17.2763 24.6581 16.0628L33.2253 6.9116C34.3612 5.69739 35.9032 5.01562 37.5103 5.01562H56.7249C58.332 5.01562 59.8733 5.69739 61.0093 6.9116L69.5764 16.0628C70.7131 17.2763 71.3513 18.9226 71.3513 20.6393V32.6463C71.3513 34.611 70.5156 36.4691 69.0794 37.6967L57.8713 47.2785C56.7967 48.1973 55.461 48.6989 54.0847 48.6989Z" fill="#FFB531"/>
<path d="M59.9917 22.8126C55.2481 22.9034 51.054 26.1266 49.4654 30.9021H44.7699C43.1813 26.1266 38.9873 22.9034 34.2429 22.8126C29.58 22.8963 25.4369 26.0136 23.7921 30.6753C22.8115 33.3226 23.5651 36.3435 25.6492 38.1178L36.3633 47.2801C37.4379 48.1989 38.7735 48.699 40.1499 48.699H54.0847C55.4611 48.699 56.7967 48.1989 57.8713 47.2801L68.5921 38.1194C70.6762 36.3451 71.4298 33.3242 70.4491 30.6769C68.8036 26.012 64.6576 22.8939 59.9917 22.8126Z" fill="#FFD896"/>
<path d="M45.6026 24.4305H48.6319C50.3048 24.4305 51.6611 25.8793 51.6611 27.6663C51.6611 29.4532 50.3048 30.9021 48.6319 30.9021H45.6026C43.9297 30.9021 42.5734 29.4532 42.5734 27.6663C42.5734 25.8793 43.9297 24.4305 45.6026 24.4305Z" fill="#2E3E51"/>
<path d="M51.6611 37.3736C51.6611 40.0541 49.6266 42.2273 47.1173 42.2273C44.6079 42.2273 42.5734 40.0541 42.5734 37.3736L47.1173 35.7557L51.6611 37.3736Z" fill="#E94F4F"/>
<path d="M39.5441 19.5767C39.5441 21.3637 38.1878 22.8125 36.5149 22.8125C34.842 22.8125 33.4856 21.3637 33.4856 19.5767C33.4856 17.7898 34.842 16.3409 36.5149 16.3409C38.1878 16.3409 39.5441 17.7898 39.5441 19.5767Z" fill="#2E3E51"/>
<path d="M60.7489 19.5767C60.7489 21.3637 59.3926 22.8125 57.7197 22.8125C56.0468 22.8125 54.6904 21.3637 54.6904 19.5767C54.6904 17.7898 56.0468 16.3409 57.7197 16.3409C59.3926 16.3409 60.7489 17.7898 60.7489 19.5767Z" fill="#2E3E51"/>
<path d="M35.0002 9.86932H38.0295V13.1051H35.0002V9.86932Z" fill="#FFD896"/>
<path d="M56.2051 9.86932H59.2344V13.1051H56.2051V9.86932Z" fill="#FFD896"/>
<path d="M56.4594 31.6217L54.5573 34.6735C54.2149 35.217 53.601 35.4887 52.999 35.3623L48.6319 34.4286V30.902H45.6026V34.4286L41.2362 35.3623C40.6342 35.4911 40.0197 35.2185 39.6787 34.6735L37.7751 31.6217L35.2546 33.4174L37.159 36.4675C38.1781 38.1068 40.0248 38.9236 41.8316 38.5349L47.1173 37.4029L52.4037 38.5349C54.2097 38.9283 56.0593 38.1099 57.0762 36.4675L58.9799 33.4174L56.4594 31.6217Z" fill="#2E3E51"/>
</g>
<defs>
<clipPath id="clip0">
<rect width="88" height="94" fill="white"/>
</clipPath>
</defs>
</svg>
