<svg width="17" height="16" viewBox="0 0 17 16" fill="none" xmlns="http://www.w3.org/2000/svg">
<path d="M10.949 1.14409C12.634 0.648089 13.933 1.41409 14.526 2.32309C15.199 2.09209 15.857 1.84209 16.537 1.61509C16.5239 2.30145 16.2107 2.94761 15.68 3.38309C16.365 3.55309 16.984 2.89209 16.984 2.89209C16.815 3.89209 15.978 4.68009 15.421 4.91609C15.19 11.6661 12.246 16.1331 5.344 15.9981H4.898C4.488 15.9981 0.734 15.5381 0 14.1111C2.271 14.3071 3.893 13.6891 4.693 12.9341C3.733 12.6341 2.014 12.4571 1.714 9.98409C2.063 10.0901 2.278 10.2121 2.904 10.1031C1.704 9.24709 0.373 8.53009 0.447 6.33009C0.732 6.65809 1.514 6.86609 1.787 6.80209C1.084 6.56109 -0.183 3.44209 0.893 1.85009C2.711 3.70409 4.628 5.45609 8.045 5.62309C8.253 3.33009 9.182 1.79309 10.949 1.14409Z" fill="#3941FF"/>
</svg>
